# xmcd CD database file
#
# Track frame offsets:
#	150
#	12213
#	40805
#	54559
#	68857
#	81929
#	94674
#	108012
#	120251
#	133999
#	148197
#	162937
#	175436
#	190511
#	204097
#	217396
#
# Disc length: 3078 seconds
#
# Revision: 0
# Processed by: cddbd v1.5.2PL0 Copyright (c) Steve Scherf et al.
# Submitted via: CDex 1.81
#
DISCID=df0c0410
DTITLE=varios - Blues Power 50 Blues Artist Who Matter
DYEAR=2006
DGENRE=Blues
TTITLE0=Am I Wrong [Live]-Keb' Mo'
TTITLE1=The Sky Is Crying [Live]-Paul Butterfield_Albert King_Stevie Ray Vaughan
TTITLE2=Good Morning Little Schoolgirl-Mississippi Fred McDowell
TTITLE3=My Black Mama, Part 1-Son House
TTITLE4=Mannish Boy-Muddy Waters
TTITLE5=Hard Time Killing Floor Blues-Skip James
TTITLE6=Nobody Knows You When You're Down And Out-Bessie Smith
TTITLE7=Dust My Broom-Elmore James
TTITLE8=Walking The Blues-Willie Dixon
TTITLE9=Twelve Gates To The City-Rev. Gary Davis
TTITLE10=Bad Luck Blues-Albert King
TTITLE11=Candy Man-Mississippi John Hurt
TTITLE12=Five After Four A.M.-Johnny Winter
TTITLE13=Key To The Highway-Big Bill Broonzy
TTITLE14=Bricks In My Pillow-Robert Nighthawk
TTITLE15=St. Louis Blues-W.C. Handy
EXTD=YEAR: 2006
EXTT0=
EXTT1=
EXTT2=
EXTT3=
EXTT4=
EXTT5=
EXTT6=
EXTT7=
EXTT8=
EXTT9=
EXTT10=
EXTT11=
EXTT12=
EXTT13=
EXTT14=
EXTT15=
PLAYORDER=
